<svg id="Layer_1" data-name="Layer 1" xmlns="http://www.w3.org/2000/svg" viewBox="0 0 946.66 793.7"><defs><style>.cls-1{fill:#86c358;}.cls-2{fill:#919cb0;}.cls-3{fill:#aa5b16;}.cls-4{fill:#fedea1;}.cls-5{fill:#e35144;}.cls-6{fill:#573a32;}.cls-7{fill:#ff7247;}.cls-8{fill:#e9334b;}.cls-9{fill:#e6be8a;}.cls-10{fill:#ffebb7;}.cls-11{fill:#b4b6bc;}.cls-12{fill:#5d647f;}.cls-13{fill:none;}</style></defs><title>logo</title><ellipse class="cls-1" cx="400.66" cy="396.85" rx="400.66" ry="396.85"/><polygon class="cls-2" points="291.06 161.86 342.26 161.86 342.26 233.36 291.06 284.56 291.06 161.86"/><path class="cls-3" d="M581.2,630.31v-192a12.82,12.82,0,0,0-12.8-12.8H491.6a12.82,12.82,0,0,0-12.8,12.8v192H338V399.91H282.53L530,138.61l247.47,261.3H722v230.4H581.2ZM530,259.11a51.2,51.2,0,1,0,51.2,51.2A51.25,51.25,0,0,0,530,259.11Z" transform="translate(-85.34 -7.65)"/><path class="cls-4" d="M530,361.51a51.2,51.2,0,1,1,51.2-51.2A51.25,51.25,0,0,1,530,361.51Z" transform="translate(-85.34 -7.65)"/><rect class="cls-5" x="393.46" y="417.86" width="102.4" height="204.8"/><path class="cls-6" d="M530,246.31a64,64,0,1,0,64,64A64.07,64.07,0,0,0,530,246.31Zm0,102.4a38.4,38.4,0,1,1,38.4-38.4A38.4,38.4,0,0,1,530,348.71Z" transform="translate(-85.34 -7.65)"/><path class="cls-6" d="M773.2,617.51H734.8V412.71h25.6A25.6,25.6,0,0,0,778.51,369L548.11,138.6a25.61,25.61,0,0,0-36.21,0L440.4,210.1V182.31a25.6,25.6,0,0,0-25.6-25.6H389.2a25.6,25.6,0,0,0-25.6,25.6V286.9L281.5,369a25.6,25.6,0,0,0,18.1,43.71h25.6v204.8H286.8a12.8,12.8,0,1,0,0,25.6H773.2A12.8,12.8,0,1,0,773.2,617.51Zm-384-435.2h25.6V235.7l-25.6,25.6v-79Zm179.2,435.2H491.6V438.31h76.8v179.2Zm140.8,0H594V438.31a25.6,25.6,0,0,0-25.6-25.6H491.6a25.6,25.6,0,0,0-25.6,25.6v179.2H350.8V387.11H299.6L530,156.71l230.4,230.4H709.2v230.4h0Z" transform="translate(-85.34 -7.65)"/><path class="cls-7" d="M514.21,174.74H201.84c-9.23,0-16.73,16.17-16.73,36V607.32c0,19.88,7.51,36,16.73,36H514.21c9.23,0,16.73-16.17,16.73-36V210.79C530.95,190.91,523.44,174.74,514.21,174.74Z" transform="translate(-85.34 -7.65)"/><rect class="cls-8" x="412.14" y="598.21" width="33.47" height="37.52"/><path class="cls-9" d="M531.27,567.82v38c0,7-2.59,12.68-5.79,12.68H224.18c-3.2,0-5.79-5.68-5.79-12.68v-38l34.61-38L392,542.46l115.88-12.68Z" transform="translate(-85.34 -7.65)"/><path class="cls-10" d="M234.72,585.32c95.67-43,203.86-40.4,298,7.85V136.7c-97.25-49.84-209.48-51-307.42-3.45A13,13,0,0,0,218.38,145V573.73C218.38,582.89,226.95,588.82,234.72,585.32Z" transform="translate(-85.34 -7.65)"/><path class="cls-11" d="M265,510.37a11.8,11.8,0,0,1-11.11-8.88c-1.92-6.68,1.49-13.8,7.62-15.9a356.87,356.87,0,0,1,36-10.24c6.29-1.44,12.46,2.94,13.78,9.81s-2.71,13.57-9,15a335.63,335.63,0,0,0-33.82,9.62A10.85,10.85,0,0,1,265,510.37Z" transform="translate(-85.34 -7.65)"/><path class="cls-11" d="M486.15,510.37a10.8,10.8,0,0,1-3.49-.59A328,328,0,0,0,347.37,493.1c-6.59.51-12-4.66-12.53-11.64s4.28-13.09,10.69-13.65a350.15,350.15,0,0,1,144.12,17.77c6.13,2.1,9.54,9.22,7.62,15.9A11.79,11.79,0,0,1,486.15,510.37Z" transform="translate(-85.34 -7.65)"/><path class="cls-11" d="M486.15,459.5a10.8,10.8,0,0,1-3.49-.59,328,328,0,0,0-214.22,0c-6.18,2.1-12.69-1.62-14.6-8.3s1.49-13.8,7.62-15.9a349.45,349.45,0,0,1,228.18,0c6.13,2.1,9.54,9.22,7.62,15.9A11.79,11.79,0,0,1,486.15,459.5Z" transform="translate(-85.34 -7.65)"/><path class="cls-11" d="M265,408.93A11.8,11.8,0,0,1,253.84,400c-1.92-6.68,1.49-13.8,7.62-15.9a351.34,351.34,0,0,1,132.11-18.59c6.41,0.33,11.38,6.27,11.07,13.27s-5.73,12.36-12.19,12.07a329.44,329.44,0,0,0-124,17.45A10.83,10.83,0,0,1,265,408.93Z" transform="translate(-85.34 -7.65)"/><path class="cls-11" d="M486.15,408.93a10.8,10.8,0,0,1-3.49-.59,334.59,334.59,0,0,0-45.11-12c-6.33-1.22-10.56-7.79-9.44-14.69s7.17-11.5,13.48-10.28a357.2,357.2,0,0,1,48,12.77c6.13,2.1,9.54,9.22,7.62,15.9A11.8,11.8,0,0,1,486.15,408.93Z" transform="translate(-85.34 -7.65)"/><path class="cls-11" d="M265,358.06a11.8,11.8,0,0,1-11.11-8.88c-1.92-6.68,1.49-13.8,7.62-15.9A351,351,0,0,1,465.62,326c6.25,1.66,10.08,8.52,8.56,15.32s-7.86,10.94-14.06,9.32a329.28,329.28,0,0,0-191.67,6.84A10.85,10.85,0,0,1,265,358.06Z" transform="translate(-85.34 -7.65)"/><path class="cls-11" d="M265,307.34a11.8,11.8,0,0,1-11.11-8.88c-1.92-6.68,1.49-13.8,7.62-15.9A354.34,354.34,0,0,1,333.53,266c6.42-.85,12.15,4.25,12.86,11.2s-3.9,13.23-10.29,14a333,333,0,0,0-67.66,15.52A10.85,10.85,0,0,1,265,307.34Z" transform="translate(-85.34 -7.65)"/><path class="cls-11" d="M462.88,300.28a10.86,10.86,0,0,1-2.76-.36,330,330,0,0,0-78.91-11c-6.44-.11-11.56-5.88-11.46-12.88s5.13-12.89,11.82-12.48a351.91,351.91,0,0,1,84.05,11.73c6.25,1.66,10.08,8.52,8.56,15.32C472.88,296.39,468.12,300.28,462.88,300.28Z" transform="translate(-85.34 -7.65)"/><path class="cls-11" d="M265,256.77a11.8,11.8,0,0,1-11.11-8.88c-1.92-6.68,1.49-13.8,7.62-15.9a348.87,348.87,0,0,1,156.12-16.52c6.39,0.77,11,7,10.29,14s-6.39,12.1-12.86,11.2a327.76,327.76,0,0,0-146.57,15.52A10.79,10.79,0,0,1,265,256.77Z" transform="translate(-85.34 -7.65)"/><path class="cls-11" d="M265,205.9A11.8,11.8,0,0,1,253.84,197c-1.92-6.69,1.49-13.8,7.63-15.89,8-2.74,16.08-5.18,24-7.28,6.2-1.67,12.54,2.52,14.06,9.32s-2.32,13.66-8.56,15.32c-7.43,2-15,4.27-22.54,6.83A10.78,10.78,0,0,1,265,205.9Z" transform="translate(-85.34 -7.65)"/><path class="cls-11" d="M462.88,198.83a10.86,10.86,0,0,1-2.76-.36,328.29,328.29,0,0,0-124-8.67c-6.39.85-12.15-4.24-12.86-11.2s3.9-13.23,10.29-14a349.3,349.3,0,0,1,132.1,9.23c6.25,1.66,10.08,8.52,8.56,15.32C472.88,194.95,468.12,198.83,462.88,198.83Z" transform="translate(-85.34 -7.65)"/><path class="cls-12" d="M462.87,333.23c0,5.06,5.18,8.08,9.05,5.27l25.88-18.79,25.88,18.79c3.87,2.81,9.05-.21,9.05-5.27V137.75a12.88,12.88,0,0,0-6.88-11.67,348.9,348.9,0,0,0-55.68-21.27c-3.69-1.06-7.32,2-7.32,6.21Z" transform="translate(-85.34 -7.65)"/><rect id="_Tranche_" data-name="&lt;Tranche&gt;" class="cls-13" x="262.66" y="268.46" width="1" height="1"/><rect id="_Tranche_2" data-name="&lt;Tranche&gt;" class="cls-13" x="177.66" y="106.46" width="21" height="17"/><rect id="_Tranche_3" data-name="&lt;Tranche&gt;" class="cls-13" x="88.66" y="48.46" width="858" height="708"/></svg>